<?xml version="1.0" standalone="no"?>
<!DOCTYPE svg PUBLIC "-//W3C//DTD SVG 20010904//EN"
 "http://www.w3.org/TR/2001/REC-SVG-20010904/DTD/svg10.dtd">
<svg version="1.0" xmlns="http://www.w3.org/2000/svg"
 width="750.000000pt" height="750.000000pt" viewBox="0 0 750.000000 750.000000"
 preserveAspectRatio="xMidYMid meet">

<g transform="translate(0.000000,750.000000) scale(0.100000,-0.100000)"
fill="#000000" stroke="none">
<path d="M4065 5956 c-382 -64 -746 -370 -854 -718 -50 -164 -51 -186 -51
-1068 l0 -825 98 -1 c109 -1 271 -36 369 -81 151 -68 270 -184 339 -328 96
-202 94 -374 -7 -563 -51 -96 -88 -139 -246 -283 -73 -67 -133 -124 -133 -128
0 -12 115 -80 210 -125 311 -147 683 -140 1004 21 105 52 173 100 263 186 201
193 304 428 317 722 3 72 2 625 -2 1230 -8 1076 -9 1102 -30 1177 -110 400
-415 682 -837 774 -97 21 -339 27 -440 10z m434 -371 c193 -60 345 -184 427
-350 79 -158 77 -136 81 -807 l4 -598 -739 0 -739 0 -6 403 c-7 524 3 808 31
897 70 217 266 399 495 460 60 16 98 19 232 16 114 -3 176 -9 214 -21z"/>
<path d="M4186 5375 c-142 -36 -271 -140 -331 -267 -53 -112 -66 -186 -72
-414 -8 -309 8 -354 132 -362 60 -4 66 -2 90 24 55 59 58 74 66 314 4 124 10
239 14 255 22 89 90 165 175 195 30 11 75 28 100 37 102 37 130 118 65 188
-33 36 -37 38 -107 41 -43 2 -97 -3 -132 -11z"/>
</g>
</svg>
