<?xml version="1.0" encoding="UTF-8"?>
<svg version="1.1" xmlns="http://www.w3.org/2000/svg" width="512" height="512">
<path d="M0 0 C2.2059954 1.33862169 2.2059954 1.33862169 4.65234375 1.08203125 C8.10724042 -0.1467192 11.14268988 -1.91891617 14.27734375 -3.7890625 C55.72608018 -27.6846893 105.20579154 -42.79040687 152.83984375 -30.6640625 C172.11224066 -25.44913269 188.32121234 -16.01492282 203.27734375 -2.8515625 C204.19193359 -2.06265625 204.19193359 -2.06265625 205.125 -1.2578125 C225.1260371 17.27742756 236.32245281 44.90108173 241.27734375 71.1484375 C241.50292969 72.31246094 241.72851562 73.47648437 241.9609375 74.67578125 C245.48781403 97.07752807 244.13842026 121.22648999 239.84008789 143.40454102 C239.10324312 147.55307413 239.10324312 147.55307413 240.578125 151.37109375 C241.57392578 152.28181641 241.57392578 152.28181641 242.58984375 153.2109375 C266.35690613 177.43426111 276.5013288 213.47871391 276.52734375 246.5234375 C276.52835587 247.67209793 276.52835587 247.67209793 276.52938843 248.84396362 C276.51386273 259.91117401 276.13458856 270.39647612 273.27734375 281.1484375 C273.1057373 281.83566895 272.93413086 282.52290039 272.75732422 283.23095703 C270.09853662 293.79720228 266.2953147 303.49083468 261.27734375 313.1484375 C260.77460937 314.12876953 260.77460937 314.12876953 260.26171875 315.12890625 C242.56685246 349.26415204 212.20155182 374.22555992 175.89453125 386.45703125 C163.86314922 390.2459311 150.90181479 392.71827034 138.27734375 393.1484375 C137.17003906 393.18839844 136.06273437 393.22835938 134.921875 393.26953125 C108.01384178 393.75155081 82.29169171 387.52047058 58.99731445 373.95605469 C58.324021 373.57739258 57.65072754 373.19873047 56.95703125 372.80859375 C56.36647949 372.46449463 55.77592773 372.12039551 55.16748047 371.76586914 C51.46049348 370.55494559 48.62374482 371.9892676 45.20629883 373.55957031 C43.51863403 374.44660645 43.51863403 374.44660645 41.796875 375.3515625 C41.18398117 375.67122986 40.57108734 375.99089722 39.93962097 376.32025146 C37.98654574 377.34042833 36.03811319 378.36911751 34.08984375 379.3984375 C32.80044403 380.07481734 31.51073299 380.75060404 30.22070312 381.42578125 C29.59066376 381.75574097 28.96062439 382.08570068 28.31149292 382.42565918 C27.05569817 383.08252832 25.79945449 383.73853994 24.54275513 384.39367676 C21.81865514 385.81411036 19.10208133 387.2438565 16.40380859 388.71289062 C6.87050321 393.78321566 6.87050321 393.78321566 1.27734375 393.1484375 C-2.39962977 391.97343918 -5.73722923 390.29475273 -9.16015625 388.5234375 C-10.15442627 388.02706787 -11.14869629 387.53069824 -12.1730957 387.01928711 C-15.36700967 385.41597271 -18.54470538 383.78312846 -21.72265625 382.1484375 C-23.84206268 381.07866353 -25.96185306 380.00964987 -28.08203125 378.94140625 C-67.32530267 359.008268 -103.31630672 333.91220917 -135.72265625 304.1484375 C-136.58576416 303.36098145 -136.58576416 303.36098145 -137.46630859 302.55761719 C-145.29647291 295.40403401 -152.76478939 288.16744622 -159.72265625 280.1484375 C-160.41101563 279.40980469 -161.099375 278.67117188 -161.80859375 277.91015625 C-169.05433472 270.12817813 -175.38248341 261.66897727 -181.72265625 253.1484375 C-182.17817871 252.5395166 -182.63370117 251.9305957 -183.10302734 251.30322266 C-220.91762363 200.52526079 -243.68706415 137.02319008 -234.64013672 73.30249023 C-233.87242947 68.85751996 -232.88924747 64.50493968 -231.72265625 60.1484375 C-231.48659668 59.26639648 -231.25053711 58.38435547 -231.00732422 57.47558594 C-224.74007929 35.04927429 -213.63681435 16.08648445 -197.72265625 -0.8515625 C-197.20703125 -1.44324219 -196.69140625 -2.03492188 -196.16015625 -2.64453125 C-147.22606021 -56.29363134 -52.8198177 -35.9205073 0 0 Z M37.27734375 164.2734375 C22.60304662 180.85378574 13.09084111 200.61043821 8.27734375 222.1484375 C7.90996094 223.71851563 7.90996094 223.71851563 7.53515625 225.3203125 C4.35792353 241.77228464 5.18239827 259.9298739 9.27734375 276.1484375 C9.44363281 276.80714844 9.60992187 277.46585938 9.78125 278.14453125 C18.44368295 311.06177645 39.73910074 338.24511065 68.86352539 355.53198242 C85.65707836 365.2429233 104.77527878 371.4261388 124.27734375 372.1484375 C125.31503906 372.18839844 126.35273438 372.22835937 127.421875 372.26953125 C161.93739644 372.92807655 193.29277835 359.70647796 218.27734375 336.1484375 C219.01597656 335.48585938 219.75460937 334.82328125 220.515625 334.140625 C236.34895897 319.34784762 246.50880635 298.75704031 252.27734375 278.1484375 C252.61894531 276.94574219 252.96054687 275.74304688 253.3125 274.50390625 C260.73390919 242.643624 254.08400499 208.80557505 237.27734375 181.1484375 C232.31309462 173.52020517 226.51660189 166.75471082 220.27734375 160.1484375 C219.54128906 159.33632812 218.80523437 158.52421875 218.046875 157.6875 C197.29456132 135.64902952 165.90004733 123.00892704 135.91015625 121.9453125 C97.24172976 121.26684419 63.81871477 136.3264487 37.27734375 164.2734375 Z " fill="#A3D3FE" transform="translate(235.72265625,76.8515625)"/>
<path d="M0 0 C2.2059954 1.33862169 2.2059954 1.33862169 4.65234375 1.08203125 C8.10724042 -0.1467192 11.14268988 -1.91891617 14.27734375 -3.7890625 C55.72608018 -27.6846893 105.20579154 -42.79040687 152.83984375 -30.6640625 C172.11224066 -25.44913269 188.32121234 -16.01492282 203.27734375 -2.8515625 C204.19193359 -2.06265625 204.19193359 -2.06265625 205.125 -1.2578125 C225.1260371 17.27742756 236.32245281 44.90108173 241.27734375 71.1484375 C241.50292969 72.31246094 241.72851562 73.47648437 241.9609375 74.67578125 C245.48781403 97.07752807 244.13842026 121.22648999 239.84008789 143.40454102 C239.10324312 147.55307413 239.10324312 147.55307413 240.578125 151.37109375 C241.57392578 152.28181641 241.57392578 152.28181641 242.58984375 153.2109375 C266.35690613 177.43426111 276.5013288 213.47871391 276.52734375 246.5234375 C276.52835587 247.67209793 276.52835587 247.67209793 276.52938843 248.84396362 C276.51386273 259.91117401 276.13458856 270.39647612 273.27734375 281.1484375 C273.1057373 281.83566895 272.93413086 282.52290039 272.75732422 283.23095703 C270.09853662 293.79720228 266.2953147 303.49083468 261.27734375 313.1484375 C260.77460937 314.12876953 260.77460937 314.12876953 260.26171875 315.12890625 C242.56685246 349.26415204 212.20155182 374.22555992 175.89453125 386.45703125 C163.86314922 390.2459311 150.90181479 392.71827034 138.27734375 393.1484375 C137.17003906 393.18839844 136.06273437 393.22835938 134.921875 393.26953125 C108.01384178 393.75155081 82.29169171 387.52047058 58.99731445 373.95605469 C58.324021 373.57739258 57.65072754 373.19873047 56.95703125 372.80859375 C56.36647949 372.46449463 55.77592773 372.12039551 55.16748047 371.76586914 C51.46049348 370.55494559 48.62374482 371.9892676 45.20629883 373.55957031 C43.51863403 374.44660645 43.51863403 374.44660645 41.796875 375.3515625 C41.18398117 375.67122986 40.57108734 375.99089722 39.93962097 376.32025146 C37.98654574 377.34042833 36.03811319 378.36911751 34.08984375 379.3984375 C32.80044403 380.07481734 31.51073299 380.75060404 30.22070312 381.42578125 C29.59066376 381.75574097 28.96062439 382.08570068 28.31149292 382.42565918 C27.05569817 383.08252832 25.79945449 383.73853994 24.54275513 384.39367676 C21.81865514 385.81411036 19.10208133 387.2438565 16.40380859 388.71289062 C6.87050321 393.78321566 6.87050321 393.78321566 1.27734375 393.1484375 C-2.39962977 391.97343918 -5.73722923 390.29475273 -9.16015625 388.5234375 C-10.15442627 388.02706787 -11.14869629 387.53069824 -12.1730957 387.01928711 C-15.36700967 385.41597271 -18.54470538 383.78312846 -21.72265625 382.1484375 C-23.84206268 381.07866353 -25.96185306 380.00964987 -28.08203125 378.94140625 C-67.32530267 359.008268 -103.31630672 333.91220917 -135.72265625 304.1484375 C-136.58576416 303.36098145 -136.58576416 303.36098145 -137.46630859 302.55761719 C-145.29647291 295.40403401 -152.76478939 288.16744622 -159.72265625 280.1484375 C-160.41101563 279.40980469 -161.099375 278.67117188 -161.80859375 277.91015625 C-169.05433472 270.12817813 -175.38248341 261.66897727 -181.72265625 253.1484375 C-182.17817871 252.5395166 -182.63370117 251.9305957 -183.10302734 251.30322266 C-220.91762363 200.52526079 -243.68706415 137.02319008 -234.64013672 73.30249023 C-233.87242947 68.85751996 -232.88924747 64.50493968 -231.72265625 60.1484375 C-231.48659668 59.26639648 -231.25053711 58.38435547 -231.00732422 57.47558594 C-224.74007929 35.04927429 -213.63681435 16.08648445 -197.72265625 -0.8515625 C-197.20703125 -1.44324219 -196.69140625 -2.03492188 -196.16015625 -2.64453125 C-147.22606021 -56.29363134 -52.8198177 -35.9205073 0 0 Z M-185.98828125 16.0703125 C-210.32642098 45.23222767 -217.65894873 79.72015541 -215.72265625 117.1484375 C-214.89710179 125.89858739 -213.4114565 134.52810787 -211.72265625 143.1484375 C-211.57844238 143.90624512 -211.43422852 144.66405273 -211.28564453 145.44482422 C-204.5882297 179.41898309 -186.52213398 212.77687451 -165.72265625 240.1484375 C-165.29130371 240.71723633 -164.85995117 241.28603516 -164.41552734 241.87207031 C-161.6931088 245.44033704 -158.91797256 248.96178144 -156.09521484 252.45117188 C-154.81320616 254.03646614 -153.5428638 255.63117507 -152.2734375 257.2265625 C-145.2774111 265.8124121 -137.46438979 273.61894664 -129.66015625 281.4609375 C-128.82821243 282.30078186 -128.82821243 282.30078186 -127.97946167 283.15759277 C-120.88393584 290.30510767 -113.62483418 296.89099695 -105.72265625 303.1484375 C-103.88656483 304.70769555 -102.05260661 306.26947683 -100.22265625 307.8359375 C-72.33656539 331.05038942 -40.86067922 349.43898743 -8.54003906 365.71142578 C-6.79050348 366.60377989 -5.05262227 367.51990215 -3.33496094 368.47216797 C0.77262863 370.7160756 2.79503238 371.42240242 7.27734375 370.1484375 C8.84065884 369.48831563 10.3804201 368.77018452 11.89453125 368.00390625 C12.74917969 367.57400391 13.60382813 367.14410156 14.484375 366.70117188 C15.36480469 366.25064453 16.24523437 365.80011719 17.15234375 365.3359375 C18.02503906 364.89701172 18.89773437 364.45808594 19.796875 364.00585938 C24.70854608 361.52047995 29.52495188 358.92606163 34.27734375 356.1484375 C31.54197493 352.89556647 28.81002414 349.69827346 25.8515625 346.64453125 C9.8827889 330.02868723 -0.83882344 310.26177871 -7.66015625 288.3359375 C-8.08421753 286.97722534 -8.08421753 286.97722534 -8.5168457 285.59106445 C-12.02554535 273.63090968 -13.06104167 261.6658089 -12.98339844 249.24438477 C-12.97267957 247.21535258 -12.98337118 245.18720882 -12.99609375 243.15820312 C-13.01156688 230.57968917 -11.8505349 218.25496812 -8.03515625 206.2109375 C-7.7731543 205.36885742 -7.51115234 204.52677734 -7.24121094 203.65917969 C4.73785095 166.22284343 30.57738395 136.33013327 65.27734375 118.1484375 C66.42332031 117.54257813 67.56929688 116.93671875 68.75 116.3125 C75.85976348 112.70195116 83.12766509 110.07496916 90.77734375 107.8359375 C91.59468994 107.59343262 92.41203613 107.35092773 93.25415039 107.10107422 C105.91357928 103.59111206 118.81818124 102.75504627 131.90234375 102.7734375 C132.59500336 102.77431366 133.28766296 102.77518982 134.00131226 102.77609253 C162.96717852 102.89612429 190.08722968 111.84196087 213.82421875 128.484375 C215.93593023 129.9168417 217.98960484 131.03844255 220.27734375 132.1484375 C222.64750672 123.10043443 222.58218746 114.25014175 222.53808594 104.96337891 C222.52739612 102.28655189 222.53800882 99.61039997 222.55078125 96.93359375 C222.55851374 87.81380604 222.26627285 79.09317432 220.27734375 70.1484375 C219.88675781 68.25738281 219.88675781 68.25738281 219.48828125 66.328125 C215.71888421 51.42667687 209.61712339 37.42261828 200.27734375 25.1484375 C199.68445557 24.36243164 199.68445557 24.36243164 199.07958984 23.56054688 C183.44429421 3.11765549 160.98902382 -9.45528828 135.60986328 -13.45898438 C129.60839699 -14.16597029 123.62668066 -14.19176147 117.58984375 -14.1640625 C116.92827271 -14.16124268 116.26670166 -14.15842285 115.58508301 -14.15551758 C105.16169516 -14.08893052 95.37599966 -13.60015872 85.27734375 -10.8515625 C84.31940918 -10.59342773 83.36147461 -10.33529297 82.37451172 -10.06933594 C58.72964617 -3.54287603 33.73385284 5.88571954 13.7265625 20.41796875 C9.359013 23.35056883 5.58175651 24.82878609 0.27734375 24.1484375 C-3.00137795 22.92397662 -5.79704447 21.17753421 -8.72265625 19.2734375 C-10.39958714 18.24631939 -12.07800216 17.22162084 -13.7578125 16.19921875 C-14.59199707 15.68311035 -15.42618164 15.16700195 -16.28564453 14.63525391 C-28.8101978 6.99404679 -41.99067271 1.24136609 -55.72265625 -3.8515625 C-56.47659668 -4.13660645 -57.23053711 -4.42165039 -58.00732422 -4.71533203 C-100.82540557 -20.7402046 -152.96861961 -18.9109132 -185.98828125 16.0703125 Z M37.27734375 164.2734375 C22.60304662 180.85378574 13.09084111 200.61043821 8.27734375 222.1484375 C7.90996094 223.71851563 7.90996094 223.71851563 7.53515625 225.3203125 C4.35792353 241.77228464 5.18239827 259.9298739 9.27734375 276.1484375 C9.44363281 276.80714844 9.60992187 277.46585938 9.78125 278.14453125 C18.44368295 311.06177645 39.73910074 338.24511065 68.86352539 355.53198242 C85.65707836 365.2429233 104.77527878 371.4261388 124.27734375 372.1484375 C125.31503906 372.18839844 126.35273438 372.22835937 127.421875 372.26953125 C161.93739644 372.92807655 193.29277835 359.70647796 218.27734375 336.1484375 C219.01597656 335.48585938 219.75460937 334.82328125 220.515625 334.140625 C236.34895897 319.34784762 246.50880635 298.75704031 252.27734375 278.1484375 C252.61894531 276.94574219 252.96054687 275.74304688 253.3125 274.50390625 C260.73390919 242.643624 254.08400499 208.80557505 237.27734375 181.1484375 C232.31309462 173.52020517 226.51660189 166.75471082 220.27734375 160.1484375 C219.54128906 159.33632812 218.80523437 158.52421875 218.046875 157.6875 C197.29456132 135.64902952 165.90004733 123.00892704 135.91015625 121.9453125 C97.24172976 121.26684419 63.81871477 136.3264487 37.27734375 164.2734375 Z " fill="#1F4571" transform="translate(235.72265625,76.8515625)"/>
<path d="M0 0 C1.24479126 -0.00945648 2.48958252 -0.01891296 3.77209473 -0.02865601 C5.12215495 -0.02328595 6.47221225 -0.01713291 7.82226562 -0.01025391 C9.21561841 -0.01227652 10.60897016 -0.01518952 12.00231934 -0.01895142 C14.91750197 -0.023366 17.83240818 -0.01697199 20.74755859 -0.00292969 C24.47672277 0.0141621 28.20523914 0.00431622 31.93437958 -0.01364708 C34.81008754 -0.02450858 37.68564293 -0.02102782 40.56135559 -0.0132637 C41.93602069 -0.01126822 43.31069981 -0.01369803 44.68534851 -0.02070236 C46.60923991 -0.02835491 48.53318014 -0.01461519 50.45703125 0 C51.5500354 0.00238678 52.64303955 0.00477356 53.76916504 0.00723267 C57.90527274 0.53966504 60.49916425 2.25267711 63.52270508 5.04541016 C65.33134728 8.55942728 65.09719426 12.01620488 65.02148438 15.87255859 C65.01723953 16.68815247 65.01299469 17.50374634 65.00862122 18.34405518 C64.99186278 20.94243743 64.9542166 23.54003678 64.91601562 26.13818359 C64.90096508 27.90249529 64.88727732 29.66681917 64.875 31.43115234 C64.84196863 35.75046324 64.79020648 40.06919079 64.72851562 44.38818359 C65.82317139 44.36723633 66.91782715 44.34628906 68.0456543 44.32470703 C72.11762343 44.2521565 76.18953573 44.20632951 80.26196289 44.16845703 C82.02247738 44.14837573 83.78292545 44.1211048 85.54321289 44.08642578 C88.07780365 44.03775248 90.61151057 44.01518054 93.14648438 43.99755859 C93.93000778 43.97691345 94.71353119 43.95626831 95.52079773 43.93499756 C99.30919424 43.93345166 101.47752343 44.22787497 104.70239258 46.28759766 C108.02589451 49.73324299 107.86536647 51.89195587 107.90551758 56.59448242 C107.92477043 58.55210258 107.92477043 58.55210258 107.94441223 60.54927063 C107.95257975 61.98124818 107.96002346 63.41323002 107.96679688 64.84521484 C107.9708724 65.56528906 107.97494793 66.28536327 107.97914696 67.02725792 C108.00000871 70.83905119 108.01430953 74.65080846 108.02368164 78.46264648 C108.03474223 82.39707199 108.06913695 86.3309313 108.10885334 90.26515675 C108.13501833 93.29266907 108.14337335 96.32004652 108.14696312 99.34766197 C108.15183001 100.79772449 108.16344708 102.24778095 108.18200111 103.69773293 C108.20638359 105.72958348 108.20300863 107.76170936 108.19848633 109.79370117 C108.20435257 110.94904861 108.21021881 112.10439606 108.21626282 113.29475403 C107.62460493 117.04721438 106.35346038 118.69470003 103.72851562 121.38818359 C100.50248017 123.00120132 96.98141525 122.50871958 93.43945312 122.48583984 C92.21181747 122.48371742 92.21181747 122.48371742 90.9593811 122.48155212 C88.34072238 122.47594649 85.72214859 122.46339308 83.10351562 122.45068359 C81.33007936 122.44566932 79.55664175 122.44110629 77.78320312 122.43701172 C73.43160781 122.42597523 69.08007613 122.40870684 64.72851562 122.38818359 C64.75993652 124.03016724 64.75993652 124.03016724 64.79199219 125.70532227 C64.86454272 129.7772914 64.91036971 133.8492037 64.94824219 137.92163086 C64.96832349 139.68214535 64.99559442 141.44259342 65.03027344 143.20288086 C65.07894674 145.73747162 65.10151868 148.27117854 65.11914062 150.80615234 C65.15010834 151.98143745 65.15010834 151.98143745 65.18170166 153.1804657 C65.18319014 156.82814766 64.87956718 159.13129686 63.01660156 162.29956055 C58.95449651 166.00755337 55.15680435 166.63880525 49.76416016 166.6628418 C48.58588654 166.67237381 47.40761292 166.68190582 46.19363403 166.69172668 C44.92897308 166.69081528 43.66431213 166.68990387 42.36132812 166.68896484 C41.05324188 166.69324997 39.74515564 166.6975351 38.39743042 166.70195007 C35.63193706 166.70939707 32.86657139 166.70913248 30.10107422 166.70385742 C26.57166524 166.69806984 23.04278226 166.71498327 19.51346016 166.7382021 C16.12939492 166.75655182 12.74544275 166.75275263 9.36132812 166.75146484 C8.10071564 166.76067459 6.84010315 166.76988434 5.54129028 166.77937317 C-6.17463528 166.71776807 -6.17463528 166.71776807 -11.27148438 163.38818359 C-14.52031918 158.86436401 -14.67819585 154.54239472 -14.56445312 149.14599609 C-14.56020828 148.37762421 -14.55596344 147.60925232 -14.55158997 146.81759644 C-14.53490264 144.38242375 -14.49727078 141.94810279 -14.45898438 139.51318359 C-14.4439246 137.85434145 -14.43023846 136.19548622 -14.41796875 134.53662109 C-14.38503197 130.48681769 -14.33332031 126.43764466 -14.27148438 122.38818359 C-15.36614014 122.41436768 -16.4607959 122.44055176 -17.58862305 122.4675293 C-21.66051696 122.55821578 -25.73232213 122.61549908 -29.80493164 122.6628418 C-31.56550114 122.6879442 -33.32596684 122.72203387 -35.08618164 122.76538086 C-37.62086616 122.82622474 -40.15417012 122.85443472 -42.68945312 122.87646484 C-43.86473824 122.91517448 -43.86473824 122.91517448 -45.06376648 122.95466614 C-49.32106238 122.95683768 -50.80580476 122.76486377 -54.24536133 119.98266602 C-57.25503302 116.12873408 -57.40297556 114.21645402 -57.43261719 109.36547852 C-57.44222473 108.10043991 -57.45183228 106.83540131 -57.46173096 105.5320282 C-57.46657924 104.14423808 -57.47085799 102.75644586 -57.47460938 101.36865234 C-57.48036151 99.94859312 -57.48611924 98.52853391 -57.49188232 97.10847473 C-57.50239363 94.12838377 -57.50823514 91.14831979 -57.51171875 88.16821289 C-57.51719772 84.35495436 -57.54121198 80.54205395 -57.5696907 76.72890759 C-57.58834405 73.79404165 -57.59352415 70.85926141 -57.59505463 67.9243412 C-57.59807663 66.51895507 -57.60608996 65.11357028 -57.61923981 63.70824242 C-57.63635139 61.73859123 -57.63256786 59.76879232 -57.62792969 57.79907227 C-57.63157532 56.67925461 -57.63522095 55.55943695 -57.63897705 54.40568542 C-57.22143151 50.97719689 -56.33075067 49.13884724 -54.27148438 46.38818359 C-50.43476155 43.83036838 -47.32612451 44.13511903 -42.88476562 44.19287109 C-42.06775681 44.19570099 -41.25074799 44.19853088 -40.40898132 44.20144653 C-37.80049978 44.21263819 -35.19236207 44.23774069 -32.58398438 44.26318359 C-30.81510913 44.27321472 -29.04622849 44.28234034 -27.27734375 44.29052734 C-22.94192489 44.31257418 -18.60676292 44.3470969 -14.27148438 44.38818359 C-14.28719482 43.35935059 -14.30290527 42.33051758 -14.3190918 41.27050781 C-14.37359772 37.43513896 -14.40790915 33.59980402 -14.4362793 29.76416016 C-14.45131903 28.10752597 -14.47175614 26.45093129 -14.49780273 24.79443359 C-14.53439953 22.4063133 -14.55125877 20.01872171 -14.56445312 17.63037109 C-14.57993698 16.89575653 -14.59542084 16.16114197 -14.6113739 15.40426636 C-14.61291567 10.63950176 -13.93747207 7.35905055 -11.27148438 3.38818359 C-7.44971733 0.56035808 -4.71158844 0.01028864 0 0 Z " fill="#1F4571" transform="translate(341.271484375,240.61181640625)"/>
<path d="M0 0 C12.21 0 24.42 0 37 0 C37.25 17.125 37.25 17.125 37.29785156 22.49658203 C37.3272433 23.91702473 37.35807302 25.33743871 37.390625 26.7578125 C37.39231689 27.84533813 37.39231689 27.84533813 37.39404297 28.95483398 C37.53703296 34.07631711 38.76443677 37.05055372 42 41 C45.21941308 42.60970654 48.74795587 42.24242971 52.2890625 42.31640625 C53.01440186 42.33505737 53.73974121 42.3537085 54.48706055 42.3729248 C57.19958176 42.44128272 59.91230575 42.50139299 62.625 42.5625 C68.68875 42.706875 74.7525 42.85125 81 43 C81 55.54 81 68.08 81 81 C62.3125 81.125 62.3125 81.125 56.4387207 81.11767578 C54.89270344 81.14121157 53.34671738 81.16694362 51.80078125 81.1953125 C51.0058728 81.1862085 50.21096436 81.17710449 49.39196777 81.16772461 C45.04039647 81.27823637 43.44148354 81.62965871 39.99414062 84.52148438 C37.36225431 88.3131844 37.26893017 91.960624 37.29296875 96.4609375 C37.27834595 97.16259033 37.26372314 97.86424316 37.24865723 98.5871582 C37.20165071 101.1827599 37.19701297 103.77899012 37.1875 106.375 C37.125625 112.19125 37.06375 118.0075 37 124 C24.79 124 12.58 124 0 124 C-0.375 106.25 -0.375 106.25 -0.47802734 100.66503906 C-0.51324457 99.19854944 -0.54916708 97.7320765 -0.5859375 96.265625 C-0.59729736 95.50878418 -0.60865723 94.75194336 -0.62036133 93.97216797 C-0.70299767 88.64157095 -0.70299767 88.64157095 -3 84 C-6.63041463 81.21327328 -11.104124 81.64985961 -15.484375 81.5859375 C-16.56936279 81.55947144 -16.56936279 81.55947144 -17.67626953 81.5324707 C-20.36729069 81.46960692 -23.05867769 81.42327997 -25.75 81.375 C-31.7725 81.25125 -37.795 81.1275 -44 81 C-44 68.46 -44 55.92 -44 43 C-25.75 42.5625 -25.75 42.5625 -20.00683594 42.43188477 C-18.49933993 42.3937473 -16.99185228 42.35527693 -15.484375 42.31640625 C-14.70594238 42.29993042 -13.92750977 42.28345459 -13.12548828 42.26647949 C-7.97310511 42.16952595 -7.97310511 42.16952595 -3 41 C-0.79284698 36.40697355 -0.66442509 31.76710195 -0.5859375 26.7578125 C-0.56829346 26.07581787 -0.55064941 25.39382324 -0.5324707 24.69116211 C-0.46990904 22.1693378 -0.42337476 19.64713633 -0.375 17.125 C-0.25125 11.47375 -0.1275 5.8225 0 0 Z " fill="#A3D3FE" transform="translate(348,262)"/>
</svg>
